<?xml version="1.0" encoding="UTF-8"?>
<svg id="Layer_1" data-name="Layer 1" xmlns="http://www.w3.org/2000/svg" xmlns:xlink="http://www.w3.org/1999/xlink" viewBox="0 0 314.45 133.31">
  <defs>
    <style>
      .cls-1 {
        fill: none;
      }

      .cls-2 {
        fill: url(#linear-gradient);
      }

      .cls-3 {
        fill: #fff;
      }

      .cls-4 {
        fill: #333;
      }

      .cls-5 {
        fill: #a67d64;
      }

      .cls-6 {
        fill: #2f282f;
      }

      .cls-7 {
        fill: url(#linear-gradient-8);
      }

      .cls-8 {
        fill: url(#linear-gradient-9);
      }

      .cls-9 {
        fill: url(#linear-gradient-3);
      }

      .cls-10 {
        fill: url(#linear-gradient-4);
      }

      .cls-11 {
        fill: url(#linear-gradient-2);
      }

      .cls-12 {
        fill: url(#linear-gradient-6);
      }

      .cls-13 {
        fill: url(#linear-gradient-7);
      }

      .cls-14 {
        fill: url(#linear-gradient-5);
      }

      .cls-15 {
        fill: url(#linear-gradient-10);
      }

      .cls-16 {
        fill: url(#linear-gradient-11);
      }
    </style>
    <linearGradient id="linear-gradient" x1="35.77" y1="68.28" x2="47.9" y2="49.19" gradientUnits="userSpaceOnUse">
      <stop offset="0" stop-color="#2f282f"/>
      <stop offset=".2" stop-color="#322a30"/>
      <stop offset=".38" stop-color="#3d3235"/>
      <stop offset=".56" stop-color="#4f3f3d"/>
      <stop offset=".72" stop-color="#695148"/>
      <stop offset=".88" stop-color="#896857"/>
      <stop offset="1" stop-color="#a67d64"/>
    </linearGradient>
    <linearGradient id="linear-gradient-2" x1="35.13" y1="67.87" x2="47.25" y2="48.78" xlink:href="#linear-gradient"/>
    <linearGradient id="linear-gradient-3" x1="35.12" y1="67.86" x2="47.25" y2="48.77" xlink:href="#linear-gradient"/>
    <linearGradient id="linear-gradient-4" x1="46.65" y1="37.88" x2="60.01" y2="37.88" gradientUnits="userSpaceOnUse">
      <stop offset="0" stop-color="#414042"/>
      <stop offset=".04" stop-color="#49484a"/>
      <stop offset=".19" stop-color="#646466"/>
      <stop offset=".34" stop-color="#78797c"/>
      <stop offset=".51" stop-color="#87898c"/>
      <stop offset=".71" stop-color="#909295"/>
      <stop offset="1" stop-color="#939598"/>
    </linearGradient>
    <linearGradient id="linear-gradient-5" y1="39.95" x2="60.01" y2="39.95" xlink:href="#linear-gradient-4"/>
    <linearGradient id="linear-gradient-6" x1="31.83" y1="66.03" x2="39.34" y2="66.03" gradientUnits="userSpaceOnUse">
      <stop offset="0" stop-color="#414042"/>
      <stop offset=".12" stop-color="#525254"/>
      <stop offset=".35" stop-color="#6e6f71"/>
      <stop offset=".57" stop-color="#828486"/>
      <stop offset=".79" stop-color="#8e9093"/>
      <stop offset="1" stop-color="#939598"/>
    </linearGradient>
    <linearGradient id="linear-gradient-7" x1="31.83" y1="64.75" x2="39.34" y2="64.75" xlink:href="#linear-gradient-6"/>
    <linearGradient id="linear-gradient-8" x1="14.64" y1="70.13" x2="29.69" y2="70.13" gradientUnits="userSpaceOnUse">
      <stop offset="0" stop-color="#414042"/>
      <stop offset=".15" stop-color="#58585b"/>
      <stop offset=".36" stop-color="#727375"/>
      <stop offset=".56" stop-color="#848588"/>
      <stop offset=".78" stop-color="#8f9194"/>
      <stop offset="1" stop-color="#939598"/>
    </linearGradient>
    <linearGradient id="linear-gradient-9" x1="14.64" y1="69.38" x2="29.69" y2="69.38" xlink:href="#linear-gradient-8"/>
    <linearGradient id="linear-gradient-10" x1="43.32" y1="16.2" x2="61.41" y2="16.2" gradientUnits="userSpaceOnUse">
      <stop offset="0" stop-color="#faf7ca"/>
      <stop offset=".16" stop-color="#fbf9d8"/>
      <stop offset=".45" stop-color="#fdfced"/>
      <stop offset=".73" stop-color="#fefefa"/>
      <stop offset="1" stop-color="#fff"/>
    </linearGradient>
    <linearGradient id="linear-gradient-11" x1="43.32" y1="18.2" x2="61.41" y2="18.2" xlink:href="#linear-gradient-10"/>
  </defs>
  <path class="cls-1" d="M200.41,25.81c-1.49-.45-4.25-.67-8.28-.67v22.23c0,1.44,.15,2.26,.45,2.46,.5,.35,1.89,.52,4.18,.52,3.43,0,6.16-1.09,8.2-3.28,2.04-2.19,3.06-5.39,3.06-9.62,0-6.27-2.54-10.14-7.61-11.64Z"/>
  <path class="cls-1" d="M196.9,23.42c2.83-.1,5.04-1.11,6.6-3.02,1.57-1.91,2.35-4.54,2.35-7.87,0-4.77-1.09-7.96-3.28-9.55-1.14-.84-3.31-1.27-6.49-1.27-.85,0-2.16,.07-3.95,.22V23.57h.67l4.1-.15Z"/>
  <path class="cls-1" d="M18.27,23.42c2.83-.1,5.03-1.11,6.6-3.02,1.57-1.91,2.35-4.54,2.35-7.87,0-4.77-1.09-7.96-3.28-9.55-1.14-.84-3.31-1.27-6.49-1.27-.85,0-2.16,.07-3.95,.22V23.57h.67l4.1-.15Z"/>
  <path class="cls-1" d="M29.39,37.44c0-6.27-2.54-10.14-7.61-11.64-1.49-.45-4.25-.67-8.28-.67v22.23c0,1.44,.15,2.26,.45,2.46,.5,.35,1.89,.52,4.18,.52,3.43,0,6.17-1.09,8.2-3.28,2.04-2.19,3.06-5.39,3.06-9.62Z"/>
  <path class="cls-1" d="M302.66,25.85c0-4.45-2.2-6.68-6.58-6.68-1.13,0-1.84,.11-2.11,.33-.27,.22-.41,.75-.41,1.59v12.17c6.07,0,9.1-2.47,9.1-7.42Z"/>
  <path class="cls-3" d="M30.28,49.53c4.62-2.44,6.94-6.19,6.94-11.26s-1.89-8.43-5.67-10.81c-2.54-1.59-6.07-2.54-10.59-2.83v-.45c4.57-.55,8.13-1.9,10.67-4.06,2.54-2.16,3.8-4.93,3.8-8.32,0-3.88-1.54-6.84-4.62-8.88C28.17,1.17,24.17,.27,18.8,.22H4.25c-.45,0-.94-.07-1.49-.22h-.9C.62,0,0,.24,0,.71c0,.52,.67,.79,2.01,.79,2.19,.05,3.46,.37,3.8,.97,.2,.35,.3,1.62,.3,3.8V46.62c0,1.89-.16,3.02-.48,3.39-.32,.37-1.38,.56-3.17,.56-1.54,0-2.31,.21-2.31,.63s.42,.63,1.27,.63H10.52c5.62,0,9-.02,10.14-.07,4.18-.3,7.38-1.04,9.62-2.24ZM13.5,1.94c1.79-.15,3.11-.22,3.95-.22,3.18,0,5.34,.42,6.49,1.27,2.19,1.59,3.28,4.77,3.28,9.55,0,3.33-.78,5.96-2.35,7.87-1.57,1.91-3.77,2.92-6.6,3.02l-4.1,.15h-.67V1.94Zm.45,47.88c-.3-.2-.45-1.02-.45-2.46V25.14c4.03,0,6.79,.22,8.28,.67,5.07,1.49,7.61,5.37,7.61,11.64,0,4.23-1.02,7.43-3.06,9.62-2.04,2.19-4.77,3.28-8.2,3.28-2.29,0-3.68-.17-4.18-.52Z"/>
  <path class="cls-3" d="M97.71,41.84c-.45,0-.72,.6-.82,1.79-.3,2.74-.99,4.53-2.08,5.37-1.34,1.04-4.68,1.57-10.02,1.57-.89,0-2.33-.02-4.31-.07V22.76c0-1.84,.07-2.92,.22-3.22,.15-.3,.62-.47,1.42-.52,1.64-.05,2.46-.21,2.46-.49,0-.42-.48-.63-1.42-.63h-12.07c-.65,0-.97,.17-.97,.52,0,.4,.27,.6,.82,.6,.2,.05,.63,.07,1.31,.07s1.11,.05,1.31,.15c.45,.15,.67,1.62,.67,4.41v25.04c0,.9-.06,1.45-.19,1.65-.12,.2-.46,.32-1.01,.37-1.94,.14-2.91,.35-2.91,.63,0,.33,.32,.49,.97,.49h6.12l12.75,.15h3.51c1.14,0,2.08,.04,2.8,.11,.72,.07,1.11,.11,1.16,.11,.45,0,.82-.03,1.12-.07,.1-1.89,.15-4.23,.15-7.01,0-2.19-.32-3.28-.97-3.28Z"/>
  <path class="cls-3" d="M128.58,41.84c-.45,0-.72,.6-.82,1.79-.3,2.74-.99,4.53-2.08,5.37-1.34,1.04-4.68,1.57-10.02,1.57-.89,0-2.33-.02-4.31-.07V22.76c0-1.84,.07-2.92,.22-3.22,.15-.3,.62-.47,1.42-.52,1.64-.05,2.46-.21,2.46-.49,0-.42-.48-.63-1.42-.63h-12.07c-.65,0-.97,.17-.97,.52,0,.4,.27,.6,.82,.6,.2,.05,.63,.07,1.31,.07s1.11,.05,1.31,.15c.45,.15,.67,1.62,.67,4.41v25.04c0,.9-.06,1.45-.19,1.65-.12,.2-.46,.32-1.01,.37-1.94,.14-2.91,.35-2.91,.63,0,.33,.32,.49,.97,.49h6.12l12.75,.15h3.51c1.14,0,2.08,.04,2.8,.11,.72,.07,1.11,.11,1.16,.11,.45,0,.82-.03,1.12-.07,.1-1.89,.15-4.23,.15-7.01,0-2.19-.32-3.28-.97-3.28Z"/>
  <path class="cls-3" d="M157.82,17.83h-4.7c-.85,0-1.27,.17-1.27,.52,0,.4,.42,.6,1.27,.6h2.01c.84,.05,1.27,.27,1.27,.67,0,.5-2.54,5.47-7.61,14.91-5.27-8.95-7.91-13.82-7.91-14.62,0-.65,.99-.97,2.98-.97,1.29,0,1.94-.17,1.94-.52,0-.4-.37-.6-1.12-.6h-12.9c-1,0-1.47,0-1.42,0-.65,0-.97,.2-.97,.6,0,.35,.32,.52,.97,.52,2.04,.05,3.28,.32,3.73,.82,.6,1.04,1.12,1.99,1.57,2.83,.45,.85,1.04,1.96,1.79,3.36l5.15,9.1c.6,1.14,1.04,2.01,1.34,2.61v9.92c0,1.49-.11,2.36-.34,2.61-.22,.25-1.07,.4-2.54,.45-1.47,.05-2.2,.27-2.2,.67,0,.35,.32,.52,.97,.52h4.44c.82,0,1.2,0,1.16,0h8.28c.7,0,1.04-.17,1.04-.52s-.45-.55-1.34-.6c-1.74-.1-2.76-.24-3.06-.41-.3-.17-.45-.76-.45-1.75v-9.25c0-1.39,.05-2.31,.15-2.76,.1-.45,.47-1.22,1.12-2.31,1.54-2.63,3.08-5.52,4.62-8.65,1.74-3.48,2.85-5.42,3.32-5.82,.47-.4,1.58-.67,3.32-.82,.65-.05,.97-.22,.97-.52,0-.55-1.87-.75-5.59-.6Z"/>
  <path class="cls-3" d="M210.18,27.45c-2.54-1.59-6.07-2.54-10.59-2.83v-.45c4.57-.55,8.13-1.9,10.67-4.06,2.54-2.16,3.8-4.93,3.8-8.32,0-3.88-1.54-6.84-4.62-8.88-2.64-1.74-6.64-2.63-12.01-2.69h-14.54c-.45,0-.95-.07-1.49-.22h-.89c-1.24,0-1.87,.24-1.87,.71,0,.52,.67,.79,2.01,.79,2.19,.05,3.46,.37,3.8,.97,.2,.35,.3,1.62,.3,3.8V46.62c0,1.89-.16,3.02-.49,3.39-.32,.37-1.38,.56-3.17,.56-1.54,0-2.31,.21-2.31,.63s.42,.63,1.27,.63h9.1c5.62,0,9-.02,10.14-.07,4.18-.3,7.38-1.04,9.62-2.24,4.62-2.44,6.94-6.19,6.94-11.26s-1.89-8.43-5.67-10.81ZM192.13,1.94c1.79-.15,3.11-.22,3.95-.22,3.18,0,5.34,.42,6.49,1.27,2.19,1.59,3.28,4.77,3.28,9.55,0,3.33-.78,5.96-2.35,7.87-1.57,1.91-3.77,2.92-6.6,3.02l-4.1,.15h-.67V1.94Zm12.83,45.12c-2.04,2.19-4.77,3.28-8.2,3.28-2.29,0-3.68-.17-4.18-.52-.3-.2-.45-1.02-.45-2.46V25.14c4.03,0,6.79,.22,8.28,.67,5.07,1.49,7.61,5.37,7.61,11.64,0,4.23-1.02,7.43-3.06,9.62Z"/>
  <path class="cls-3" d="M249.15,44.77c.07-.58,.11-.9,.11-.95,0-1.37-.25-2.05-.75-2.05s-.77,.37-.82,1.12c-.35,4.23-1.51,6.61-3.49,7.16-1.29,.35-5.57,.55-12.85,.6v-16.11h1.84c3.19,0,5.12,.26,5.81,.78,.69,.52,1.18,2.13,1.47,4.81,.15,1.24,.44,1.86,.88,1.86,.49,0,.73-.4,.73-1.19,0-.25-.02-.57-.05-.97-.11-1.19-.17-3.41-.17-6.64,0-.65,.04-1.59,.11-2.83,.07-1.24,.11-2.16,.11-2.76,0-.99-.25-1.49-.75-1.49-.45,0-.75,.7-.9,2.09-.25,2.34-.74,3.77-1.48,4.29-.74,.52-2.69,.78-5.84,.78h-1.78v-13.95h3.79c4.06,0,6.63,.17,7.72,.52,1.93,.65,3.24,2.86,3.94,6.64,.2,1,.52,1.49,.96,1.49,.35,0,.52-.32,.52-.96,0-.34-.03-.64-.07-.88-.3-3.67-.5-5.88-.6-6.61l-.07-1.1v-.51h-25.51c-.65,0-.97,.2-.97,.6,0,.35,.3,.52,.9,.52,1.39,0,2.26,.06,2.61,.19,.35,.12,.52,1.21,.52,3.24v25.66c0,1.39-.14,2.2-.41,2.42-.27,.22-1.21,.34-2.8,.34-.6,0-.89,.23-.89,.68,0,.39,.52,.59,1.57,.59l14.25-.22,12.45,.22c-.15-.54-.22-1.04-.22-1.49v-4.32c0-.45,.04-.97,.11-1.55Z"/>
  <path class="cls-3" d="M280.25,44.77c.07-.58,.11-.9,.11-.95,0-1.37-.25-2.05-.75-2.05s-.77,.37-.82,1.12c-.35,4.23-1.51,6.61-3.49,7.16-1.29,.35-5.57,.55-12.85,.6v-16.11h1.84c3.19,0,5.12,.26,5.81,.78,.69,.52,1.18,2.13,1.47,4.81,.15,1.24,.44,1.86,.88,1.86,.49,0,.73-.4,.73-1.19,0-.25-.02-.57-.05-.97-.11-1.19-.17-3.41-.17-6.64,0-.65,.04-1.59,.11-2.83,.07-1.24,.11-2.16,.11-2.76,0-.99-.25-1.49-.75-1.49-.45,0-.75,.7-.9,2.09-.25,2.34-.74,3.77-1.48,4.29-.74,.52-2.69,.78-5.84,.78h-1.78v-13.95h3.79c4.06,0,6.63,.17,7.72,.52,1.93,.65,3.24,2.86,3.94,6.64,.2,1,.52,1.49,.96,1.49,.35,0,.52-.32,.52-.96,0-.34-.03-.64-.07-.88-.3-3.67-.5-5.88-.6-6.61l-.07-1.1v-.51h-25.51c-.65,0-.97,.2-.97,.6,0,.35,.3,.52,.9,.52,1.39,0,2.26,.06,2.61,.19,.35,.12,.52,1.21,.52,3.24v25.66c0,1.39-.14,2.2-.41,2.42-.27,.22-1.21,.34-2.8,.34-.6,0-.89,.23-.89,.68,0,.39,.52,.59,1.57,.59l14.25-.22,12.45,.22c-.15-.54-.22-1.04-.22-1.49v-4.32c0-.45,.04-.97,.11-1.55Z"/>
  <path class="cls-3" d="M312.81,48.41c-1,0-1.49,.46-1.49,1.38,0,.15,.06,.35,.19,.62,.12,.27,.19,.42,.19,.47,0,.15-.12,.22-.37,.22-1.54,0-2.46-1.53-2.76-4.6-.45-4.5-1.45-7.62-3.02-9.36-1.57-1.73-4.44-2.82-8.62-3.27,3.88-.25,6.89-1.12,9.03-2.63,2.14-1.51,3.21-3.48,3.21-5.9,0-2.23-1.01-4.02-3.02-5.38-2.01-1.36-4.69-2.04-8.02-2.04h-14.1c-.7,0-1.04,.17-1.04,.52,0,.4,.58,.6,1.75,.6s1.89,.09,2.16,.26c.27,.17,.41,.53,.41,1.08v29.46c0,.7-.85,1.04-2.54,1.04h-1.04c-.5,0-.75,.19-.75,.56,0,.33,.7,.49,2.09,.49h12.01c.7,0,1.04-.17,1.04-.52s-.27-.52-.81-.52c-2.64,0-3.89-.35-3.74-1.04v-15.36c2.72,.1,4.64,.57,5.76,1.41s1.8,2.33,2.04,4.46c.35,3.32,.64,5.42,.89,6.31,.25,.89,.74,1.78,1.49,2.67,1.68,2.03,3.86,3.04,6.54,3.04s4.16-.79,4.16-2.39c0-1.04-.55-1.57-1.64-1.57Zm-19.24-27.31c0-.84,.14-1.37,.41-1.59,.27-.22,.97-.33,2.11-.33,4.39,0,6.58,2.23,6.58,6.68,0,4.95-3.03,7.42-9.1,7.42v-12.17Z"/>
  <path class="cls-4" d="M29.69,71.71v-.28h0c-.07,.02-.13,.04-.19,.06,.07,.07,.12,.15,.19,.21Z"/>
  <path class="cls-4" d="M28.48,67.43l-.23-.39c-.03,.19-.05,.37-.06,.54,.09-.04,.19-.1,.29-.16Z"/>
  <path class="cls-4" d="M35.46,62.16l-.57-.23c.08,.18,.18,.35,.26,.52,.1-.1,.21-.2,.31-.29Z"/>
  <path class="cls-4" d="M39.34,67.56l-.17-.68s0,0,0,0c-.11,.08-.22,.17-.34,.25,.17,.14,.33,.3,.51,.43Z"/>
  <path class="cls-4" d="M57.28,42.33h0s.79-.13,.79-.13c-.21-.1-.43-.19-.64-.28-.05,.14-.1,.27-.15,.41Z"/>
  <path class="cls-4" d="M46.65,39.43l.46,.46c.04-.14,.07-.28,.11-.42-.19,0-.38-.03-.57-.03Z"/>
  <path class="cls-5" d="M50.61,19.02c-.54,1.49-1.53,2.14-2.86,2.16-.38-.03-.71-.12-.99-.26,1.08,5.82,1.26,9.84,1.01,12.98,3.5-.79,7.39-.17,11.57,1.44,1.12-5.94,1.52-12.07,1.21-18.38-5.6-.65-9.11-.08-9.94,2.06Z"/>
  <path class="cls-2" d="M47.11,39.89c-2.77,11.04-6.87,17.76-11.65,22.27h0c1.03,1.64,2.01,3.28,3.7,4.71,7.6-5.57,14.03-13.1,18.11-24.55l-10.17-2.44h0Z"/>
  <path class="cls-4" d="M35.47,62.16h0c-.1,.09-.2,.2-.31,.29,.85,1.8,2.08,3.36,3.68,4.67,.11-.08,.22-.17,.34-.25-1.7-1.43-2.68-3.08-3.7-4.71Z"/>
  <path class="cls-11" d="M35.47,62.16h0c-.1,.09-.2,.2-.31,.29,.85,1.8,2.08,3.36,3.68,4.67,.11-.08,.22-.17,.34-.25-1.7-1.43-2.68-3.08-3.7-4.71Z"/>
  <path class="cls-4" d="M47.22,39.47c-.04,.15-.07,.28-.11,.42h0s10.17,2.44,10.17,2.44c.05-.14,.1-.27,.15-.41-3.36-1.48-6.77-2.28-10.22-2.45Z"/>
  <path class="cls-9" d="M47.22,39.47c-.04,.15-.07,.28-.11,.42h0s10.17,2.44,10.17,2.44c.05-.14,.1-.27,.15-.41-3.36-1.48-6.77-2.28-10.22-2.45Z"/>
  <path class="cls-10" d="M47.77,33.9c-.15,.03-.31,.05-.46,.09l-.66,5.44,6.44-1.74,4.98,4.5,1.94-6.6c-.23-.09-.45-.17-.68-.26-4.17-1.62-8.07-2.23-11.57-1.44Z"/>
  <path class="cls-4" d="M46.65,39.43c.19,0,.38,.02,.57,.03,3.45,.17,6.85,.98,10.22,2.45,.21,.09,.43,.18,.64,.28l-4.98-4.5-6.44,1.74Z"/>
  <path class="cls-14" d="M46.65,39.43c.19,0,.38,.02,.57,.03,3.45,.17,6.85,.98,10.22,2.45,.21,.09,.43,.18,.64,.28l-4.98-4.5-6.44,1.74Z"/>
  <path class="cls-6" d="M28.48,67.43c-.1,.06-.2,.11-.29,.16-.13,1.57,.35,2.86,1.31,3.9,.07-.02,.13-.04,.19-.07,1.91-.64,3.61-1.28,4.86-1.94-1.26-1.14-2.12-2.56-2.57-4.26-1.37,.9-2.67,1.75-3.51,2.21Z"/>
  <path class="cls-12" d="M34.89,61.93l-3.06,2.61c.05,.23,.1,.46,.16,.68,.45,1.7,1.31,3.12,2.57,4.26,.25,.22,.5,.44,.78,.64l4.01-2.57-2.87-2.05-1.58-3.57Z"/>
  <path class="cls-4" d="M35.15,62.46c-.08-.18-.19-.34-.26-.52l1.58,3.57,2.87,2.05c-.18-.14-.34-.29-.51-.43-1.6-1.31-2.83-2.87-3.68-4.67Z"/>
  <path class="cls-13" d="M35.15,62.46c-.08-.18-.19-.34-.26-.52l1.58,3.57,2.87,2.05c-.18-.14-.34-.29-.51-.43-1.6-1.31-2.83-2.87-3.68-4.67Z"/>
  <path class="cls-7" d="M28.25,67.05c-4.4,2-7.66,2.73-10.28,2.73-.31-.15-.71-.56-1.18-1.21l-.89-.03c-1.49,1.63-1.61,3.11-.63,4.46l.81,.2c.48-.57,.95-.99,1.44-1.15,4.76,.38,9,.4,12.18-.35l-2.36-1.94,.92-2.72Z"/>
  <path class="cls-4" d="M28.19,67.59c.01-.18,.03-.36,.06-.54l-.92,2.72,2.36,1.94c-.07-.07-.13-.14-.19-.21-.96-1.05-1.43-2.33-1.31-3.9Z"/>
  <path class="cls-8" d="M28.19,67.59c.01-.18,.03-.36,.06-.54l-.92,2.72,2.36,1.94c-.07-.07-.13-.14-.19-.21-.96-1.05-1.43-2.33-1.31-3.9Z"/>
  <path class="cls-15" d="M57.63,12.49c-.74-.04-1.56-.25-2.44-.57-1.93-.55-3.25-.63-3.66,0-.58,1.1-1.19,1.61-1.89,1.08-.68-.6-1.73-.73-3.45,0-2.56,.69-2.97,1.94-2.85,3.32,.13,1.17,.91,1.98,2.26,2.47,.07,1.08,.47,1.77,1.16,2.11-.1-.53-.19-1.05-.31-1.61,3.91-3.57,8.32-5.16,14.05-3.29,.02,.32,.03,.63,.04,.95,.05,0,.09,0,.13,.01,.91,0,.96-.77,.17-2.33-.71-1.26-1.74-2.04-3.23-2.16Z"/>
  <path class="cls-5" d="M46.45,19.31c.11,.56,.21,1.08,.31,1.61,.28,.14,.61,.23,.99,.26,1.33-.01,2.31-.67,2.86-2.16,.83-2.14,4.34-2.72,9.94-2.06-.02-.32-.02-.63-.04-.95-5.74-1.87-10.14-.28-14.05,3.29Z"/>
  <path class="cls-16" d="M46.45,19.31c.11,.56,.21,1.08,.31,1.61,.28,.14,.61,.23,.99,.26,1.33-.01,2.31-.67,2.86-2.16,.83-2.14,4.34-2.72,9.94-2.06-.02-.32-.02-.63-.04-.95-5.74-1.87-10.14-.28-14.05,3.29Z"/>
</svg>