<?xml version="1.0" encoding="UTF-8"?>
<svg id="Layer_1" data-name="Layer 1" xmlns="http://www.w3.org/2000/svg" viewBox="0 0 455.5 136.71">
  <defs>
    <style>
      .cls-1 {
        font-size: 55.25px;
        stroke: #ddc3a5;
        stroke-width: 2px;
      }

      .cls-1, .cls-2, .cls-3, .cls-4, .cls-5 {
        stroke-miterlimit: 10;
      }

      .cls-1, .cls-3 {
        fill: #ddc3a5;
      }

      .cls-1, .cls-5 {
        font-family: NordicAlternative, 'Nordic Alternative';
      }

      .cls-2 {
        stroke: #e0a96d;
      }

      .cls-2, .cls-4 {
        stroke-width: .25px;
      }

      .cls-2, .cls-5 {
        fill: #201e20;
      }

      .cls-3, .cls-5 {
        stroke: #201e20;
      }

      .cls-4 {
        fill: #534741;
        stroke: #534741;
      }

      .cls-5 {
        font-size: 6.22px;
        stroke-width: .3px;
      }

      .cls-6 {
        letter-spacing: -.24em;
      }
    </style>
  </defs>
  <g>
    <circle class="cls-3" cx="51.28" cy="51.28" r="50.78"/>
    <circle class="cls-3" cx="51.28" cy="51.28" r="39.72"/>
    <line class="cls-4" x1="41.89" y1="55.76" x2="40.39" y2="55.76"/>
    <g>
      <polygon class="cls-2" points="63.07 50.56 52.25 50.56 44.41 36.69 34.58 52.66 35.82 52.66 29.51 63.18 16.78 63.18 44.57 18.19 63.07 50.56"/>
      <polygon class="cls-2" points="84.78 63.21 46.51 63.88 52.65 54.07 68.37 54.07 59.14 38.06 58.27 39.16 52.73 30.09 58.62 19.61 84.78 63.21"/>
      <polygon class="cls-2" points="77.47 76.51 23.62 76.51 44.06 43.13 49.23 52.9 40.24 66.69 60.01 66.69 59.31 65.29 70.61 65.29 77.47 76.51"/>
    </g>
    <text class="cls-5" transform="translate(55.39 8.27) rotate(8.82)"><tspan x="0" y="0">B</tspan></text>
    <text class="cls-5" transform="translate(59.61 8.92) rotate(14.56)"><tspan x="0" y="0">E</tspan></text>
    <text class="cls-5" transform="translate(63.76 9.99) rotate(20.33)"><tspan x="0" y="0">E</tspan></text>
    <text class="cls-5" transform="translate(67.8 11.49) rotate(26.16)"><tspan x="0" y="0">R</tspan></text>
    <text class="cls-5" transform="translate(71.69 13.45) rotate(30.07)"><tspan x="0" y="0"> </tspan></text>
    <text class="cls-5" transform="translate(73 14.15) rotate(33.91)"><tspan x="0" y="0">F</tspan></text>
    <text class="cls-5" transform="translate(76.52 16.51) rotate(39.62)"><tspan x="0" y="0">R</tspan></text>
    <text class="cls-5" transform="translate(79.14 18.61) rotate(44.23)"><tspan x="0" y="0">O</tspan></text>
    <text class="cls-5" transform="translate(82.43 21.72) rotate(51.45)"><tspan x="0" y="0">M</tspan></text>
    <text class="cls-5" transform="translate(86.33 26.79) rotate(56.69)"><tspan x="0" y="0"> </tspan></text>
    <text class="cls-5" transform="translate(87.19 28.02) rotate(60.62)"><tspan x="0" y="0">R</tspan></text>
    <text class="cls-5" transform="translate(88.86 30.9) rotate(65.06)"><tspan x="0" y="0">E</tspan></text>
    <text class="cls-5" transform="translate(90.69 34.8) rotate(71.04)"><tspan x="0" y="0">A</tspan></text>
    <text class="cls-5" transform="translate(92.18 39.11) rotate(77.36)"><tspan x="0" y="0">L</tspan></text>
    <text class="cls-5" transform="translate(93.19 43.88) rotate(81.63)"><tspan x="0" y="0"> </tspan></text>
    <text class="cls-5" transform="translate(93.46 45.32) rotate(85.67)"><tspan x="0" y="0">V</tspan></text>
    <text class="cls-5" transform="translate(93.74 49.9) rotate(89.07)"><tspan x="0" y="0">I</tspan></text>
    <text class="cls-5" transform="translate(93.82 51.83) rotate(94.44)"><tspan x="0" y="0">K</tspan></text>
    <text class="cls-5" transform="translate(93.39 56.67) rotate(98.96)"><tspan x="0" y="0">I</tspan></text>
    <text class="cls-5" transform="translate(93.14 58.59) rotate(103.18)"><tspan x="0" y="0">N</tspan></text>
    <text class="cls-5" transform="translate(92.18 62.76) rotate(109.36)"><tspan x="0" y="0">G</tspan></text>
    <text class="cls-5" transform="translate(90.53 67.4) rotate(115.25)"><tspan x="0" y="0">S</tspan></text>
    <text class="cls-5" transform="translate(88.85 70.87) rotate(118.82)"><tspan x="0" y="0"> </tspan></text>
    <text class="cls-5" transform="translate(88.18 72.19) rotate(122.66)"><tspan x="0" y="0">F</tspan></text>
    <text class="cls-5" transform="translate(85.9 75.78) rotate(128.55)"><tspan x="0" y="0">O</tspan></text>
    <text class="cls-5" transform="translate(83.06 79.34) rotate(134.45)"><tspan x="0" y="0">R</tspan></text>
    <text class="cls-5" transform="translate(79.97 82.42) rotate(138.33)"><tspan x="0" y="0"> </tspan></text>
    <text class="cls-5" transform="translate(78.9 83.44) rotate(142.22)"><tspan x="0" y="0">R</tspan></text>
    <text class="cls-5" transform="translate(76.28 85.53) rotate(146.64)"><tspan x="0" y="0">E</tspan></text>
    <text class="cls-5" transform="translate(72.71 87.89) rotate(152.57)"><tspan x="0" y="0">A</tspan></text>
    <text class="cls-5" transform="translate(68.63 90.02) rotate(158.92)"><tspan x="0" y="0">L</tspan></text>
    <text class="cls-5" transform="translate(64.09 91.71) rotate(163.17)"><tspan x="0" y="0"> </tspan></text>
    <text class="cls-5" transform="translate(62.74 92.24) rotate(168.44)"><tspan x="0" y="0">M</tspan></text>
    <text class="cls-5" transform="translate(57.22 93.36) rotate(174.56)"><tspan x="0" y="0">E</tspan></text>
    <text class="cls-5" transform="translate(52.96 93.8) rotate(-179.07)"><tspan x="0" y="0">N</tspan></text>
    <text class="cls-5" transform="translate(48.61 93.71) rotate(-175.83)"><tspan x="0" y="0">.</tspan></text>
    <text class="cls-5" transform="translate(46.98 93.64) rotate(-171.88)"><tspan x="0" y="0">B</tspan></text>
    <text class="cls-5" transform="translate(42.77 93.04) rotate(-166.15)"><tspan x="0" y="0">E</tspan></text>
    <text class="cls-5" transform="translate(38.6 92.02) rotate(-160.37)"><tspan x="0" y="0">E</tspan></text>
    <text class="cls-5" transform="translate(34.57 90.59) rotate(-154.58)"><tspan x="0" y="0">R</tspan></text>
    <text class="cls-5" transform="translate(30.65 88.67) rotate(-150.66)"><tspan x="0" y="0"> </tspan></text>
    <text class="cls-5" transform="translate(29.33 87.99) rotate(-146.82)"><tspan x="0" y="0">F</tspan></text>
    <text class="cls-5" transform="translate(25.78 85.68) rotate(-141.11)"><tspan x="0" y="0">R</tspan></text>
    <text class="cls-5" transform="translate(23.14 83.6) rotate(-136.49)"><tspan x="0" y="0">O</tspan></text>
    <text class="cls-5" transform="translate(19.79 80.51) rotate(-129.23)"><tspan x="0" y="0">M</tspan></text>
    <text class="cls-5" transform="translate(15.83 75.49) rotate(-124)"><tspan x="0" y="0"> </tspan></text>
    <text class="cls-5" transform="translate(14.97 74.31) rotate(-120.12)"><tspan x="0" y="0">R</tspan></text>
    <text class="cls-5" transform="translate(13.24 71.41) rotate(-115.64)"><tspan x="0" y="0">E</tspan></text>
    <text class="cls-5" transform="translate(11.37 67.55) rotate(-109.67)"><tspan x="0" y="0">A</tspan></text>
    <text class="cls-5" transform="translate(9.83 63.26) rotate(-103.36)"><tspan x="0" y="0">L</tspan></text>
    <text class="cls-5" transform="translate(8.76 58.51) rotate(-99.09)"><tspan x="0" y="0"> </tspan></text>
    <text class="cls-5" transform="translate(8.47 57.06) rotate(-95.03)"><tspan x="0" y="0">V</tspan></text>
    <text class="cls-5" transform="translate(8.12 52.48) rotate(-90.93)"><tspan x="0" y="0">I</tspan></text>
    <text class="cls-5" transform="translate(8.03 50.58) rotate(-86.28)"><tspan x="0" y="0">K</tspan></text>
    <text class="cls-5" transform="translate(8.4 45.73) rotate(-81.76)"><tspan x="0" y="0">I</tspan></text>
    <text class="cls-5" transform="translate(8.63 43.79) rotate(-77.54)"><tspan x="0" y="0">N</tspan></text>
    <text class="cls-5" transform="translate(9.54 39.6) rotate(-71.35)"><tspan x="0" y="0">G</tspan></text>
    <text class="cls-5" transform="translate(11.14 34.94) rotate(-65.45)"><tspan x="0" y="0">S</tspan></text>
    <text class="cls-5" transform="translate(12.77 31.45) rotate(-61.88)"><tspan x="0" y="0"> </tspan></text>
    <text class="cls-5" transform="translate(13.42 30.12) rotate(-58.03)"><tspan x="0" y="0">F</tspan></text>
    <text class="cls-5" transform="translate(15.65 26.53) rotate(-52.18)"><tspan x="0" y="0">O</tspan></text>
    <text class="cls-5" transform="translate(18.46 22.91) rotate(-46.24)"><tspan x="0" y="0">R</tspan></text>
    <text class="cls-5" transform="translate(21.51 19.79) rotate(-42.35)"><tspan x="0" y="0"> </tspan></text>
    <text class="cls-5" transform="translate(22.55 18.77) rotate(-38.5)"><tspan x="0" y="0">R</tspan></text>
    <text class="cls-5" transform="translate(25.17 16.64) rotate(-34.04)"><tspan x="0" y="0">E</tspan></text>
    <text class="cls-5" transform="translate(28.71 14.23) rotate(-28.12)"><tspan x="0" y="0">A</tspan></text>
    <text class="cls-5" transform="translate(32.72 12.07) rotate(-21.83)"><tspan x="0" y="0">L</tspan></text>
    <text class="cls-5" transform="translate(37.27 10.32) rotate(-17.54)"><tspan x="0" y="0"> </tspan></text>
    <text class="cls-5" transform="translate(38.64 9.76) rotate(-12.24)"><tspan x="0" y="0">M</tspan></text>
    <text class="cls-5" transform="translate(44.14 8.58) rotate(-6.12)"><tspan x="0" y="0">E</tspan></text>
    <text class="cls-5" transform="translate(48.38 8.14) rotate(-.93)"><tspan x="0" y="0">N</tspan></text>
    <text class="cls-5" transform="translate(52.73 8.13) rotate(3.49)"><tspan x="0" y="0">.</tspan></text>
    <text class="cls-5" transform="translate(54.37 8.23) rotate(5.57)"><tspan x="0" y="0"> </tspan></text>
  </g>
  <text class="cls-1" transform="translate(116.72 73.29)"><tspan x="0" y="0">Bil</tspan><tspan class="cls-6" x="100.44" y="0">l</tspan><tspan x="130.98" y="0">y Beer</tspan></text>
</svg>